HIERARCHY
ROOT Hips
{
	OFFSET 0.000000 0.000000 0.000000
	CHANNELS 6 Xposition Yposition Zposition Yrotation Xrotation Zrotation
	JOINT Chest
	{
		OFFSET 0.000000 -0.009281 11.569106
		CHANNELS 3 Yrotation Xrotation Zrotation
		JOINT Chest2
		{
			OFFSET -0.000000 0.016865 9.269641
			CHANNELS 3 Yrotation Xrotation Zrotation
			JOINT Chest3
			{
				OFFSET -0.000000 0.000001 8.374491
				CHANNELS 3 Yrotation Xrotation Zrotation
				JOINT Chest4
				{
					OFFSET -0.000000 0.000001 8.374493
					CHANNELS 3 Yrotation Xrotation Zrotation
					JOINT Neck
					{
						OFFSET -0.000000 0.000002 12.152554
						CHANNELS 3 Yrotation Xrotation Zrotation
						JOINT Head
						{
							OFFSET -0.000000 0.040101 7.802319
							CHANNELS 3 Yrotation Xrotation Zrotation
							End Site
							{
								OFFSET -0.000000 0.020947 14.853096
							}
						}
					}
					JOINT RightCollar
					{
						OFFSET 2.894404 0.000001 6.791374
						CHANNELS 3 Yrotation Xrotation Zrotation
						JOINT RightShoulder
						{
							OFFSET 13.574684 0.000001 0.000000
							CHANNELS 3 Yrotation Xrotation Zrotation
							JOINT RightElbow
							{
								OFFSET 23.923903 0.000002 0.000000
								CHANNELS 3 Yrotation Xrotation Zrotation
								JOINT RightWrist
								{
									OFFSET 19.846718 0.012767 0.000000
									CHANNELS 3 Yrotation Xrotation Zrotation
									End Site
									{
										OFFSET 14.973145 0.000001 0.000000
									}
								}
							}
						}
					}
					JOINT LeftCollar
					{
						OFFSET -2.894404 0.000001 6.791374
						CHANNELS 3 Yrotation Xrotation Zrotation
						JOINT LeftShoulder
						{
							OFFSET -13.574684 -0.000001 0.000000
							CHANNELS 3 Yrotation Xrotation Zrotation
							JOINT LeftElbow
							{
								OFFSET -23.923903 -0.000002 0.000000
								CHANNELS 3 Yrotation Xrotation Zrotation
								JOINT LeftWrist
								{
									OFFSET -19.846718 0.012763 0.000000
									CHANNELS 3 Yrotation Xrotation Zrotation
									End Site
									{
										OFFSET -14.973145 -0.000001 0.000000
									}
								}
							}
						}
					}
				}
			}
		}
	}
	JOINT RightHip
	{
		OFFSET 9.469263 0.004643 0.045487
		CHANNELS 3 Yrotation Xrotation Zrotation
		JOINT RightKnee
		{
			OFFSET 0.000000 0.002661 -40.478676
			CHANNELS 3 Yrotation Xrotation Zrotation
			JOINT RightAnkle
			{
				OFFSET 0.000000 0.049106 -35.224068
				CHANNELS 3 Yrotation Xrotation Zrotation
				JOINT RightToe
				{
					OFFSET -0.000001 12.539529 -6.151390
					CHANNELS 3 Yrotation Xrotation Zrotation
					End Site
					{
						OFFSET -0.000001 5.044994 -1.291870
					}
				}
			}
		}
	}
	JOINT LeftHip
	{
		OFFSET -9.469263 0.004641 0.045487
		CHANNELS 3 Yrotation Xrotation Zrotation
		JOINT LeftKnee
		{
			OFFSET 0.000000 0.002661 -40.478676
			CHANNELS 3 Yrotation Xrotation Zrotation
			JOINT LeftAnkle
			{
				OFFSET 0.000000 0.049106 -35.224068
				CHANNELS 3 Yrotation Xrotation Zrotation
				JOINT LeftToe
				{
					OFFSET -0.000001 12.539529 -6.151390
					CHANNELS 3 Yrotation Xrotation Zrotation
					End Site
					{
						OFFSET -0.000001 5.044994 -1.291870
					}
				}
			}
		}
	}
}
MOTION
Frames: 15
Frame Time: 0.016667
10.368308 5.556737 82.945366 -10.633139 -2.373026 -106.146488 -1.902700 -6.416582 9.271160 -0.739850 -2.889915 3.978968 -0.739850 -2.889914 3.978968 -0.535968 -2.172363 2.980097 1.019074 -21.143966 1.427024 2.264107 -3.120436 2.885589 7.900698 0.007747 -7.780008 81.251862 -14.335502 19.625394 12.755794 9.813990 8.481102 -61.560208 22.711016 5.593045 -5.695709 -8.250741 -21.423406 -64.078704 13.593574 -42.028767 17.145535 26.973213 16.880196 58.511109 6.933377 -11.663197 -1.359939 -11.866159 -5.372589 1.650232 -6.650598 -2.652126 0.056502 7.462948 1.698346 0.237670 0.141305 0.046692 -0.149395 -11.842845 -0.820523 0.115625 -3.314859 -2.823005 -1.084477 4.731017 2.090460 0.424530 -0.044899 -0.038022 
10.408926 5.572834 82.954323 -10.608494 -2.257045 -105.913688 -1.734885 -6.464274 9.517404 -0.660774 -2.909127 4.086470 -0.660775 -2.909129 4.086470 -0.476032 -2.186381 3.061050 0.860550 -20.779143 1.688739 2.063207 -2.446019 3.323172 7.729466 0.283732 -7.675164 80.780777 -15.082861 19.999344 16.068587 10.137189 10.391538 -62.073135 23.867883 4.645029 -5.580481 -7.759167 -21.597632 -63.539296 15.429426 -43.624767 17.527951 28.128947 16.901160 57.879194 7.465394 -10.080939 -1.415853 -11.889438 -5.349453 1.656541 -6.588078 -2.803576 -0.012837 7.441815 1.597296 0.263040 0.153905 0.047598 -0.184795 -11.834169 -0.880773 0.072249 -3.222712 -2.840085 -1.241438 4.683639 1.959176 0.476723 -0.049737 -0.035549 
10.452002 5.584645 82.965599 -10.589917 -2.145758 -105.672029 -1.549743 -6.495216 9.750005 -0.571898 -2.919709 4.188194 -0.571899 -2.919710 4.188194 -0.408829 -2.193825 3.137735 0.705748 -20.443784 1.933585 1.864862 -1.825741 3.730537 7.560114 0.521681 -7.581768 80.213141 -15.720959 20.534395 19.320674 10.280242 12.184826 -62.573371 24.783439 3.599058 -5.457625 -7.328183 -21.766472 -63.093456 17.312259 -45.326129 17.857272 29.408927 16.822052 57.287525 8.273363 -8.350771 -1.460444 -11.930705 -5.345836 1.657408 -6.509006 -2.956854 -0.088307 7.405960 1.503720 0.287717 0.172075 0.047222 -0.213147 -11.820454 -0.992019 0.032834 -3.140919 -2.834623 -1.411087 4.629037 1.815763 0.522364 -0.051506 -0.034309 
10.492029 5.597951 82.977196 -10.563063 -2.036063 -105.420760 -1.357007 -6.498818 9.959481 -0.478718 -2.918216 4.280643 -0.478718 -2.918216 4.280644 -0.338524 -2.192142 3.207503 0.561197 -20.138096 2.168045 1.682510 -1.260460 4.121410 7.376556 0.725623 -7.470374 79.643182 -16.383798 21.190964 22.450173 10.469793 13.913271 -62.933356 25.548849 2.625740 -5.445531 -6.819424 -21.970632 -62.664554 19.206914 -46.999720 18.145209 30.833834 16.556136 56.704149 9.098922 -6.462480 -1.507734 -11.972738 -5.368349 1.668453 -6.415092 -3.096063 -0.166772 7.360576 1.434724 0.307059 0.188835 0.047033 -0.252493 -11.799874 -1.116117 0.016907 -3.062661 -2.814190 -1.581405 4.573602 1.685636 0.552829 -0.051711 -0.034985 
10.535483 5.619387 82.988014 -10.539408 -1.929060 -105.159546 -1.168276 -6.498464 10.157100 -0.386896 -2.914093 4.367274 -0.386897 -2.914093 4.367274 -0.269286 -2.188467 3.272902 0.438653 -19.846440 2.387010 1.536322 -0.721492 4.490553 7.222293 0.974732 -7.351288 79.034352 -17.242973 21.863140 25.587041 11.011688 15.863241 -63.355660 26.360181 1.642707 -5.464285 -6.312111 -22.230647 -62.310723 21.195146 -48.795558 18.297454 32.306197 16.175047 56.139456 9.884438 -4.674313 -1.560776 -12.024317 -5.398917 1.691872 -6.313329 -3.225251 -0.245289 7.314557 1.332784 0.319167 0.201256 0.046127 -0.301259 -11.777895 -1.220674 0.016776 -2.989809 -2.792698 -1.740665 4.513263 1.525408 0.564941 -0.051879 -0.036491 
10.580856 5.645330 82.997902 -10.508588 -1.824663 -104.889945 -0.984865 -6.499553 10.366817 -0.297968 -2.910464 4.458771 -0.297968 -2.910463 4.458771 -0.202191 -2.185160 3.341940 0.342623 -19.553539 2.579618 1.431614 -0.180392 4.820084 7.082718 1.274300 -7.282431 78.453595 -18.113184 22.502043 28.839596 11.733404 18.081853 -63.873757 27.359110 0.677271 -5.524829 -5.708394 -22.535927 -62.054263 23.156351 -50.614874 18.355703 33.621080 15.733551 55.561898 10.501821 -3.136891 -1.617547 -12.074179 -5.425168 1.721428 -6.211002 -3.367284 -0.314704 7.271934 1.246710 0.325777 0.211850 0.045797 -0.353264 -11.752123 -1.273074 0.021807 -2.915884 -2.803755 -1.880173 4.449209 1.358348 0.562784 -0.052218 -0.035998 
10.638866 5.673357 83.007057 -10.473285 -1.716101 -104.595181 -0.824071 -6.499015 10.578512 -0.220522 -2.904622 4.553098 -0.220522 -2.904622 4.553098 -0.143708 -2.180251 3.413044 0.274389 -19.258613 2.754116 1.373246 0.363816 5.125679 7.007999 1.590586 -7.239817 77.930724 -18.817774 23.108500 32.092183 12.252784 20.425092 -64.389143 28.249275 -0.203188 -5.600586 -4.975287 -22.859791 -61.852424 24.973178 -52.365725 18.262300 34.733219 15.136092 55.189752 11.153783 -1.738365 -1.671030 -12.121215 -5.494412 1.745755 -6.097864 -3.506627 -0.371594 7.225358 1.163482 0.324145 0.215765 0.044393 -0.405074 -11.730738 -1.305766 0.030621 -2.832699 -2.881254 -2.011489 4.378715 1.200979 0.556110 -0.049621 -0.034919 
10.692361 5.701024 83.019089 -10.439106 -1.602865 -104.273021 -0.658229 -6.496667 10.779673 -0.143371 -2.900213 4.641384 -0.143371 -2.900213 4.641385 -0.085468 -2.176396 3.479613 0.211008 -18.956756 2.912805 1.320158 0.921144 5.404580 6.912933 1.903157 -7.226158 77.471264 -19.311533 23.719391 35.228319 12.327643 22.666341 -64.770868 28.938091 -0.840182 -5.654267 -4.260786 -23.181817 -61.733886 26.651081 -54.181551 18.051548 35.757505 14.353791 54.975458 11.944452 -0.309877 -1.721010 -12.204129 -5.602265 1.761481 -5.966392 -3.634188 -0.416986 7.193724 1.082454 0.321111 0.219878 0.046234 -0.457998 -11.699707 -1.374127 0.042733 -2.758248 -3.003974 -2.139779 4.299397 1.088776 0.549312 -0.041962 -0.034703 
10.755426 5.729463 83.032822 -10.412328 -1.487892 -103.920775 -0.474926 -6.484152 10.937722 -0.058758 -2.890497 4.712572 -0.058758 -2.890497 4.712573 -0.021754 -2.168479 3.533401 0.133122 -18.656228 3.079735 1.244154 1.476326 5.694355 6.773525 2.153280 -7.186191 76.981102 -19.693577 24.385317 38.174306 11.977221 24.759200 -65.010062 29.477809 -1.333638 -5.658268 -3.716699 -23.490335 -61.724850 28.287479 -56.130853 17.660219 36.903591 13.276950 54.843322 12.781073 1.131493 -1.766149 -12.292747 -5.731257 1.772026 -5.827184 -3.755316 -0.457155 7.151982 0.986146 0.315732 0.223831 0.046725 -0.506298 -11.675035 -1.495900 0.048845 -2.692468 -3.145404 -2.265568 4.222237 1.006580 0.546318 -0.031316 -0.035122 
10.816235 5.762148 83.046066 -10.378638 -1.373017 -103.554001 -0.283102 -6.474836 11.087907 0.030904 -2.882767 4.778187 0.030904 -2.882767 4.778187 0.045732 -2.161990 3.583030 0.044162 -18.342980 3.241945 1.147927 2.055777 5.972659 6.591268 2.416065 -7.152055 76.398241 -20.103368 25.121079 41.046473 11.467540 26.793958 -65.166493 30.077745 -1.806652 -5.669087 -3.213950 -23.818973 -61.813431 29.882433 -58.145059 17.001362 38.101503 11.943867 54.653579 13.574553 2.547316 -1.815851 -12.385905 -5.842466 1.798029 -5.687548 -3.895895 -0.500779 7.116407 0.881600 0.311877 0.231551 0.046812 -0.551870 -11.638474 -1.642333 0.050335 -2.632360 -3.262550 -2.386936 4.144346 0.912953 0.543930 -0.024354 -0.034192 
10.879534 5.801094 83.058121 -10.332656 -1.258896 -103.180396 -0.100534 -6.460565 11.251081 0.117123 -2.872213 4.849585 0.117123 -2.872213 4.849586 0.110642 -2.153392 3.636979 -0.038597 -18.020590 3.395230 1.061603 2.652221 6.237284 6.400314 2.708821 -7.178104 75.720850 -20.558784 25.865858 43.921962 10.858054 28.878675 -65.301765 30.505565 -2.345720 -5.624781 -2.637046 -24.105332 -61.935937 31.264846 -60.079792 15.986737 39.315409 10.324896 54.402587 14.321781 3.806383 -1.866001 -12.461567 -5.928249 1.829607 -5.552418 -4.068134 -0.545281 7.081207 0.778978 0.311249 0.237551 0.047394 -0.600904 -11.589550 -1.802700 0.060217 -2.577184 -3.347303 -2.507893 4.070213 0.785578 0.539511 -0.021816 -0.034207 
10.941588 5.846138 83.069550 -10.276270 -1.142463 -102.801628 0.080813 -6.420588 11.403625 0.201410 -2.850358 4.915849 0.201410 -2.850358 4.915849 0.173985 -2.136313 3.687065 -0.113492 -17.708495 3.553983 0.992101 3.228874 6.514734 6.188682 2.949237 -7.195996 75.039955 -21.086708 26.593159 46.789565 10.255625 31.089956 -65.466653 30.796326 -2.829698 -5.568174 -2.059224 -24.323446 -62.004744 32.421661 -61.913595 14.710252 40.401324 8.461483 54.291767 14.985169 5.010480 -1.920694 -12.530663 -6.019385 1.862921 -5.417051 -4.240704 -0.587831 7.048575 0.686175 0.312621 0.243586 0.048808 -0.662494 -11.529252 -1.966488 0.082728 -2.520497 -3.433146 -2.621686 3.991037 0.664495 0.530141 -0.020151 -0.034321 
11.005345 5.895820 83.081238 -10.216517 -1.023478 -102.419568 0.264927 -6.358144 11.538817 0.285283 -2.818202 4.975184 0.285283 -2.818202 4.975185 0.236897 -2.111495 3.731952 -0.174339 -17.413257 3.713247 0.948888 3.773389 6.797886 5.968351 3.112537 -7.200506 74.434240 -21.509843 27.317987 49.493197 9.479731 33.217741 -65.539121 31.070418 -3.139787 -5.524378 -1.562419 -24.559747 -61.903138 33.451463 -63.574738 13.259424 41.375059 6.456099 54.266953 15.704405 6.072653 -1.979015 -12.600913 -6.126325 1.896141 -5.271653 -4.407879 -0.627000 7.010529 0.594311 0.312795 0.248913 0.050940 -0.726353 -11.473698 -2.137355 0.100057 -2.448245 -3.528866 -2.720380 3.898764 0.554395 0.515320 -0.015729 -0.034620 
11.077824 5.946365 83.092758 -10.147630 -0.896358 -102.030261 0.447706 -6.293069 11.661231 0.366659 -2.783732 5.030724 0.366659 -2.783732 5.030724 0.297895 -2.084949 3.773971 -0.222946 -17.119815 3.858732 0.924545 4.314325 7.060378 5.740292 3.287713 -7.203101 73.901984 -21.811376 27.971657 51.887199 8.420774 35.211001 -65.478886 31.210041 -3.313132 -5.450020 -1.109466 -24.751187 -61.725581 34.347526 -65.162703 11.572379 42.305683 4.244429 54.369303 16.404424 7.053101 -2.034830 -12.661146 -6.235813 1.913378 -5.113526 -4.577777 -0.654210 6.964829 0.498536 0.310058 0.249527 0.052834 -0.799547 -11.419262 -2.312281 0.119193 -2.363930 -3.638748 -2.811540 3.799259 0.459131 0.499819 -0.007700 -0.035605 
11.144715 6.000046 83.105820 -10.075716 -0.767479 -101.634595 0.646251 -6.224424 11.759847 0.454418 -2.748964 5.073476 0.454418 -2.748965 5.073473 0.363614 -2.058122 3.806425 -0.286455 -16.835257 3.998269 0.871108 4.839797 7.306985 5.494980 3.436104 -7.176569 73.511728 -21.907782 28.560726 53.983302 7.104480 36.951617 -65.325165 31.295298 -3.390062 -5.323648 -0.726233 -24.826754 -61.746522 35.195101 -66.780904 9.580600 43.095044 1.735444 54.516958 17.080111 7.924371 -2.092005 -12.745551 -6.350086 1.927762 -4.939853 -4.742699 -0.672502 6.926855 0.400433 0.306418 0.253050 0.053870 -0.868679 -11.359692 -2.499488 0.129874 -2.275072 -3.740653 -2.903675 3.688507 0.356707 0.490240 0.001258 -0.035621 
